:SAMPLES-PER-SECOND 30
:FULLY-SPECIFIED
:DEGREES
516
root  -15.3358 34.7096 -8.40804 -170.055 -0.0669403 179.672
RightUpLeg  -9.52083 -10.0611 1.71185
RightLeg  5.93001 2.12485 0.0820662
RightFoot  3.60497 0.00500119 0.253401
RightToes  -23.8332 -0.10987 -0.214334
Spine  -2.25215 0.292508 -0.205052
Spine1  -4.58337 0.674915 0.217619
HEad  -66.9935 -0.416173 6.39143
LeftShoulder1  -1.94126e-019 -3.10601e-018 -2.51263e-017
LeftArm  -10.8638 24.8274 -82.6389
LeftForeArm  31.2271 -17.4558 -2.85102
LeftHand  -0.492797 -2.60141 7.37791
RightShoulder  -4.96962e-017 0 -2.36833e-017
RightArm  -21.6588 -23.405 79.4655
RightForeArm  54.5533 14.7934 1.18253
RightHand  -0.498159 -0.664478 -12.1375
LeftUpLeg  -9.54477 -5.87831 -0.950215
LeftLeg  6.99975 13.0677 0.750028
LeftFoot  2.79419 -0.0182102 0.799339
LeftToes  -14.9811 1.31424e-006 1.14295e-007
517
root  -15.3358 34.7098 -8.40804 -170.055 -0.0669403 179.671
RightUpLeg  -9.52083 -10.0611 1.71185
RightLeg  5.93001 2.12498 0.0830319
RightFoot  3.60497 0.00500119 0.253401
RightToes  -23.8332 -0.10987 -0.214334
Spine  -2.25215 0.291969 -0.206679
Spine1  -4.58337 0.676166 0.217619
HEad  -66.9935 -0.416173 6.39143
LeftShoulder1  -1.94126e-019 -3.10601e-018 -2.51263e-017
LeftArm  -10.8633 24.8273 -82.6377
LeftForeArm  31.2271 -17.4558 -2.85102
LeftHand  -0.491421 -2.60141 7.37791
RightShoulder  -4.96962e-017 0 -2.36833e-017
RightArm  -21.6588 -23.405 79.4655
RightForeArm  54.5533 14.7933 1.18219
RightHand  -0.498029 -0.663357 -12.1377
LeftUpLeg  -9.54287 -5.87831 -0.950215
LeftLeg  6.99975 13.0677 0.750028
LeftFoot  2.79419 -0.0182102 0.799339
LeftToes  -14.9811 1.31424e-006 1.14295e-007
518
root  -15.327 34.71 -8.39415 -170.058 -0.0511932 179.67
RightUpLeg  -9.52276 -10.0892 1.72633
RightLeg  5.89761 2.17621 0.0769352
RightFoot  3.62864 0.004991 0.253547
RightToes  -23.8592 -0.10987 -0.214334
Spine  -2.24168 0.292433 -0.21262
Spine1  -4.56268 0.681442 0.205426
HEad  -66.8905 -0.467424 6.39297
LeftShoulder1  -1.94126e-019 -3.10601e-018 -2.51263e-017
LeftArm  -10.8965 24.7709 -82.6375
LeftForeArm  31.2281 -17.4959 -2.85507
LeftHand  -0.489938 -2.62178 7.39336
RightShoulder  -4.96962e-017 0 -2.36833e-017
RightArm  -21.6477 -23.3685 79.4659
RightForeArm  54.5573 14.7945 1.18159
RightHand  -0.496652 -0.669069 -12.1726
LeftUpLeg  -9.54035 -5.89796 -0.937952
LeftLeg  6.96144 13.0997 0.745443
LeftFoot  2.81221 -0.0185806 0.805095
LeftToes  -14.9181 1.31424e-006 1.14295e-007
519
root  -15.32 34.7102 -8.38241 -170.068 -0.0301819 179.669
RightUpLeg  -9.52561 -10.0389 1.73548
RightLeg  5.87978 2.15083 0.0812785
RightFoot  3.642 0.00497968 0.253708
RightToes  -23.8477 -0.10987 -0.214334
Spine  -2.23335 0.294994 -0.216865
Spine1  -4.54603 0.685753 0.197092
HEad  -66.7707 -0.472988 6.37491
LeftShoulder1  -1.94126e-019 -3.10601e-018 -2.51263e-017
LeftArm  -10.9643 24.7063 -82.6389
LeftForeArm  31.2132 -17.539 -2.86225
LeftHand  -0.48886 -2.55431 7.34679
RightShoulder  -4.96962e-017 0 -2.36833e-017
RightArm  -21.6464 -23.3189 79.4668
RightForeArm  54.5598 14.8206 1.17483
RightHand  -0.496063 -0.671475 -12.1872
LeftUpLeg  -9.53077 -5.91135 -0.925436
LeftLeg  6.92979 13.136 0.740103
LeftFoot  2.84592 -0.019211 0.814894
LeftToes  -14.9749 1.31424e-006 1.14295e-007
520
root  -15.32 34.7104 -8.38241 -170.068 -0.0301819 179.668
RightUpLeg  -9.52561 -10.0389 1.73548
RightLeg  5.87978 2.15093 0.082017
RightFoot  3.642 0.00496727 0.253886
RightToes  -23.8477 -0.10987 -0.214334
Spine  -2.23335 0.296365 -0.218893
Spine1  -4.54603 0.686967 0.197092
HEad  -66.7707 -0.472988 6.37491
LeftShoulder1  -1.94126e-019 -3.10601e-018 -2.51263e-017
LeftArm  -10.964 24.7063 -82.6381
LeftForeArm  31.2132 -17.539 -2.86225
LeftHand  -0.487896 -2.55431 7.34679
RightShoulder  -4.96962e-017 0 -2.36833e-017
RightArm  -21.6465 -23.3189 79.4671
RightForeArm  54.5598 14.8206 1.17483
RightHand  -0.496039 -0.671475 -12.1872
LeftUpLeg  -9.53077 -5.91135 -0.925436
LeftLeg  6.92979 13.136 0.739535
LeftFoot  2.84592 -0.019211 0.814894
LeftToes  -14.9749 1.31424e-006 1.14295e-007
521
root  -15.3126 34.7106 -8.37174 -170.082 -0.00372314 179.667
RightUpLeg  -9.52144 -10.0022 1.74529
RightLeg  5.84769 2.14474 0.0834832
RightFoot  3.67014 0.00495385 0.254077
RightToes  -23.7802 -0.10987 -0.214334
Spine  -2.2289 0.297566 -0.220542
Spine1  -4.53438 0.687066 0.191699
HEad  -66.61 -0.457442 6.30753
LeftShoulder1  -1.94126e-019 -3.10601e-018 -2.51263e-017
LeftArm  -10.9749 24.6786 -82.6401
LeftForeArm  31.2021 -17.5785 -2.86719
LeftHand  -0.486639 -2.48045 7.34682
RightShoulder  -4.96962e-017 0 -2.36833e-017
RightArm  -21.6229 -23.2739 79.4784
RightForeArm  54.5712 14.8781 1.16735
RightHand  -0.497883 -0.595204 -12.1449
LeftUpLeg  -9.52153 -5.93217 -0.926422
LeftLeg  6.90955 13.1857 0.73242
LeftFoot  2.87434 -0.0193016 0.816302
LeftToes  -15.0031 1.31424e-006 1.14295e-007
522
root  -15.3049 34.7111 -8.36328 -170.097 0.0146332 179.667
RightUpLeg  -9.51686 -9.99944 1.75277
RightLeg  5.84298 2.15605 0.0823833
RightFoot  3.6739 0.00493945 0.254283
RightToes  -23.7583 -0.10987 -0.214334
Spine  -2.22431 0.298608 -0.221842
Spine1  -4.52784 0.687223 0.186359
HEad  -66.5041 -0.463038 6.28437
LeftShoulder1  -1.94126e-019 -3.10601e-018 -2.51263e-017
LeftArm  -10.9918 24.6694 -82.6409
LeftForeArm  31.2696 -17.5672 -2.86397
LeftHand  -0.486039 -2.4895 7.37529
RightShoulder  -4.96962e-017 0 -2.36833e-017
RightArm  -21.6137 -23.2423 79.4965
RightForeArm  54.5439 14.9197 1.16374
RightHand  -0.497203 -0.590678 -12.1644
LeftUpLeg  -9.51772 -5.89805 -0.923874
LeftLeg  6.90583 13.1689 0.734288
LeftFoot  2.88687 -0.0194428 0.818496
LeftToes  -14.9987 1.31424e-006 1.14295e-007
523
root  -15.3049 34.7115 -8.36328 -170.097 0.0146332 179.666
RightUpLeg  -9.51686 -9.99944 1.75277
RightLeg  5.84298 2.15605 0.0823833
RightFoot  3.6739 0.00492413 0.254502
RightToes  -23.7583 -0.10987 -0.214334
Spine  -2.22325 0.299502 -0.222824
Spine1  -4.5261 0.68861 0.184287
HEad  -66.5041 -0.463038 6.28437
LeftShoulder1  -1.94126e-019 -3.10601e-018 -2.51263e-017
LeftArm  -10.9918 24.6694 -82.6409
LeftForeArm  31.2696 -17.5672 -2.86397
LeftHand  -0.486039 -2.4895 7.37529
RightShoulder  -4.96962e-017 0 -2.36833e-017
RightArm  -21.6137 -23.2423 79.4965
RightForeArm  54.544 14.92 1.16488
RightHand  -0.497219 -0.590678 -12.1644
LeftUpLeg  -9.51618 -5.89809 -0.923306
LeftLeg  6.90326 13.1689 0.734288
LeftFoot  2.88687 -0.0195887 0.820764
LeftToes  -14.9987 1.31424e-006 1.14295e-007
524
root  -15.2974 34.7121 -8.35533 -170.097 0.043045 179.666
RightUpLeg  -9.52806 -10.0247 1.76496
RightLeg  5.8518 2.22185 0.0852095
RightFoot  3.71971 0.00490795 0.254733
RightToes  -23.9077 -0.10987 -0.214334
Spine  -2.22332 0.300259 -0.223519
Spine1  -4.52599 0.692749 0.183157
HEad  -66.4802 -0.463838 6.27387
LeftShoulder1  -1.94126e-019 -3.10601e-018 -2.51263e-017
LeftArm  -10.9986 24.6968 -82.6572
LeftForeArm  31.1454 -17.6194 -2.87118
LeftHand  -0.468162 -2.27186 7.29823
RightShoulder  -4.96962e-017 0 -2.36833e-017
RightArm  -21.6098 -23.213 79.4978
RightForeArm  54.5669 14.9138 1.16518
RightHand  -0.49743 -0.604128 -12.1576
LeftUpLeg  -9.51561 -5.8213 -0.917911
LeftLeg  6.90312 13.1217 0.731083
LeftFoot  2.88086 -0.0196936 0.822395
LeftToes  -15.0815 1.31424e-006 1.14295e-007
525
root  -15.2974 34.7126 -8.35533 -170.097 0.043045 179.666
RightUpLeg  -9.52806 -10.0247 1.76496
RightLeg  5.8518 2.22185 0.0852095
RightFoot  3.71971 0.00489096 0.254976
RightToes  -23.9077 -0.10987 -0.214334
Spine  -2.22332 0.300891 -0.223956
Spine1  -4.52599 0.696756 0.182859
HEad  -66.4802 -0.465007 6.27387
LeftShoulder1  -1.94126e-019 -3.10601e-018 -2.51263e-017
LeftArm  -10.9994 24.6968 -82.6572
LeftForeArm  31.1454 -17.6194 -2.87118
LeftHand  -0.468162 -2.27186 7.29823
RightShoulder  -4.96962e-017 0 -2.36833e-017
RightArm  -21.6093 -23.213 79.4966
RightForeArm  54.5668 14.9136 1.164
RightHand  -0.497469 -0.604128 -12.1576
LeftUpLeg  -9.51535 -5.82134 -0.917178
LeftLeg  6.90312 13.1217 0.731083
LeftFoot  2.88086 -0.0197118 0.822678
LeftToes  -15.0815 1.31424e-006 1.14295e-007
526
root  -15.2971 34.713 -8.35527 -170.098 0.0432129 179.666
RightUpLeg  -9.53862 -10.0284 1.76433
RightLeg  5.87047 2.23721 0.083616
RightFoot  3.65574 0.00487322 0.255229
RightToes  -23.7134 -0.10987 -0.214334
Spine  -2.22259 0.301408 -0.224168
Spine1  -4.52381 0.698537 0.183286
HEad  -66.4919 -0.466176 6.24285
LeftShoulder1  -1.94126e-019 -3.10601e-018 -2.51263e-017
LeftArm  -11.0089 24.7165 -82.6799
LeftForeArm  31.1542 -17.4884 -2.85233
LeftHand  -0.481691 -2.42731 7.365
RightShoulder  -4.96962e-017 0 -2.36833e-017
RightArm  -21.6215 -23.2256 79.4943
RightForeArm  54.5347 14.896 1.16794
RightHand  -0.498164 -0.641838 -12.1352
LeftUpLeg  -9.51642 -5.77935 -0.913814
LeftLeg  6.91352 13.0784 0.737763
LeftFoot  2.86704 -0.0195534 0.820215
LeftToes  -15.0838 1.31424e-006 1.14295e-007
527
root  -15.2964 34.7132 -8.35519 -170.099 0.0430756 179.666
RightUpLeg  -9.53857 -10.0321 1.76357
RightLeg  5.87047 2.23731 0.0843064
RightFoot  3.65574 0.00485478 0.255493
RightToes  -23.7134 -0.10987 -0.214334
Spine  -2.2218 0.301822 -0.224184
Spine1  -4.52059 0.699691 0.184331
HEad  -66.4919 -0.466976 6.24285
LeftShoulder1  -1.94126e-019 -3.10601e-018 -2.51263e-017
LeftArm  -11.0094 24.7165 -82.6799
LeftForeArm  31.1547 -17.4884 -2.85233
LeftHand  -0.481691 -2.42731 7.365
RightShoulder  -4.96962e-017 0 -2.36833e-017
RightArm  -21.6211 -23.2256 79.4935
RightForeArm  54.5347 14.8959 1.16745
RightHand  -0.498224 -0.641838 -12.1352
LeftUpLeg  -9.5186 -5.7794 -0.913022
LeftLeg  6.91353 13.0785 0.739116
LeftFoot  2.86704 -0.0193498 0.817051
LeftToes  -15.0861 1.31424e-006 1.14295e-007
528
root  -15.2957 34.7132 -8.35509 -170.099 0.0430908 179.666
RightUpLeg  -9.54347 -10.032 1.76296
RightLeg  5.87047 2.23742 0.0851424
RightFoot  3.65574 0.00483569 0.255766
RightToes  -23.7134 -0.10987 -0.214334
Spine  -2.22088 0.302144 -0.224034
Spine1  -4.51703 0.700321 0.185885
HEad  -66.4946 -0.466976 6.24575
LeftShoulder1  -1.94126e-019 -3.10601e-018 -2.51263e-017
LeftArm  -11.0096 24.7165 -82.6802
LeftForeArm  31.1547 -17.4884 -2.85233
LeftHand  -0.481573 -2.42731 7.365
RightShoulder  -4.96962e-017 0 -2.36833e-017
RightArm  -21.6211 -23.2256 79.4935
RightForeArm  54.5347 14.8957 1.16694
RightHand  -0.498293 -0.641838 -12.1352
LeftUpLeg  -9.52242 -5.78225 -0.912414
LeftLeg  6.91353 13.0787 0.740615
LeftFoot  2.86704 -0.0192339 0.81525
LeftToes  -15.0861 1.31424e-006 1.14295e-007
529
root  -15.2952 34.7132 -8.355 -170.1 0.0437164 179.666
RightUpLeg  -9.55031 -10.0227 1.7629
RightLeg  5.88835 2.22129 0.0883175
RightFoot  3.69223 0.00481601 0.256047
RightToes  -23.9045 -0.10987 -0.214334
Spine  -2.21976 0.302385 -0.22375
Spine1  -4.51382 0.700527 0.187841
HEad  -66.4983 -0.487308 6.24975
LeftShoulder1  -1.94126e-019 -3.10601e-018 -2.51263e-017
LeftArm  -11.0303 24.7423 -82.679
LeftForeArm  31.1789 -17.4839 -2.85142
LeftHand  -0.482168 -2.50081 7.35509
RightShoulder  -4.96962e-017 0 -2.36833e-017
RightArm  -21.6304 -23.2659 79.466
RightForeArm  54.5679 14.8674 1.1735
RightHand  -0.496756 -0.627187 -12.1817
LeftUpLeg  -9.53128 -5.78614 -0.911907
LeftLeg  6.92995 13.0881 0.740742
LeftFoot  2.87534 -0.0191426 0.813831
LeftToes  -15.1053 1.31424e-006 1.14295e-007
530
root  -15.2952 34.7131 -8.35495 -170.1 0.0454254 179.667
RightUpLeg  -9.55538 -10.0076 1.76318
RightLeg  5.91465 2.21086 0.090777
RightFoot  3.63041 0.00479579 0.256336
RightToes  -23.6849 -0.10987 -0.214334
Spine  -2.21835 0.302557 -0.223361
Spine1  -4.51164 0.700413 0.19187
HEad  -66.501 -0.467901 6.25266
LeftShoulder1  -1.94126e-019 -3.10601e-018 -2.51263e-017
LeftArm  -11.051 24.7468 -82.6786
LeftForeArm  31.2471 -17.4393 -2.84393
LeftHand  -0.480596 -2.59156 7.4483
RightShoulder  -4.96962e-017 0 -2.36833e-017
RightArm  -21.6419 -23.2863 79.4416
RightForeArm  54.575 14.8549 1.17607
RightHand  -0.497285 -0.601502 -12.1725
LeftUpLeg  -9.54034 -5.78899 -0.911398
LeftLeg  6.9573 13.0889 0.741582
LeftFoot  2.85507 -0.0190681 0.812673
LeftToes  -15.0799 1.31424e-006 1.14295e-007
